# xmcd
#
# Track frame offsets:
#	150
#	10998
#	24994
#	36249
#	47886
#	61537
#	77038
#	90491
#	103686
#	113190
#	126788
#	141669
#	155114
#	170317
#	183498
#	197082
#	211495
#	227305
#	248545
#
# Disc length: 3487 seconds
#
# Revision: 1
# Processed by: cddbd v1.5.2PL0 Copyright (c) Steve Scherf et al.
# Submitted via: audiograbber 1.83.01
#
DISCID=f90d9d13
DTITLE=JUAN VICENTE - BOLEROS and SERESTAS
DYEAR=1900
DGENRE=INSTRUMENTAL
TTITLE0=SENTIMENTAL DEMAIS
TTITLE1=BOEMIA
TTITLE2=A PRETENDIDA
TTITLE3=FICA COMIGO ESTA NOITE
TTITLE4=CAMINHEMOS
TTITLE5=BRIGAS
TTITLE6=MATRIZ E FILIAL
TTITLE7=NEGUE
TTITLE8=AS ROSAS NÃO FALAM
TTITLE9=PERFUME DE GARDÊNIA
TTITLE10=EL DIA QUE ME QUIERAS
TTITLE11=SABOR AMI
TTITLE12=HISTÓRIA DE UM AMOR
TTITLE13=SOLAMENTE UNA VEZ
TTITLE14=QUISAS QUISAS
TTITLE15=RELÓGIO
TTITLE16=LA BARCA
TTITLE17=BESAME MUCHO
TTITLE18=PERFÍDIA
EXTD=
EXTT0=
EXTT1=
EXTT2=
EXTT3=
EXTT4=
EXTT5=
EXTT6=
EXTT7=
EXTT8=
EXTT9=
EXTT10=
EXTT11=
EXTT12=
EXTT13=
EXTT14=
EXTT15=
EXTT16=
EXTT17=
EXTT18=
PLAYORDER=
